<svg version="1.1" viewBox="0.0 0.0 960.0 540.0" fill="none" stroke="none" stroke-linecap="square" stroke-miterlimit="10" xmlns:xlink="http://www.w3.org/1999/xlink" xmlns="http://www.w3.org/2000/svg"><clipPath id="g1f99d640acb_0_2018.0"><path d="m0 0l960.0 0l0 540.0l-960.0 0l0 -540.0z" clip-rule="nonzero"/></clipPath><g clip-path="url(#g1f99d640acb_0_2018.0)"><path fill="#ffffff" d="m0 0l960.0 0l0 540.0l-960.0 0z" fill-rule="evenodd"/><path fill="#0070c0" d="m592.68585 49.47267c-9.306824 -4.7865753 -39.885986 -26.060118 -55.84082 -28.71946c-15.954895 -2.65934 -22.072021 4.785982 -39.888367 12.763412c-17.816315 7.9774284 -48.928192 25.262257 -67.009674 35.101166c-18.081512 9.838905 -24.727173 12.764008 -41.47931 23.93229c-16.752136 11.168282 -46.801544 30.57975 -59.033447 43.077408c-12.231903 12.49765 -11.167114 13.294922 -14.357941 31.908524c-3.190857 18.613602 -2.9256897 55.04355 -4.7871704 79.7731c-1.8614807 24.729553 -5.051758 51.85211 -6.381714 68.60425c-1.3299866 16.752106 -2.9274902 18.878754 -1.598114 31.908508c1.3293762 13.029755 9.042236 29.783691 9.574341 46.27005c0.5321045 16.486359 -4.78598 40.948395 -6.3816833 52.648193c-1.5957336 11.699768 -17.286041 8.391205 -3.1926575 17.550568c14.093384 9.159363 73.12744 31.171326 87.75293 37.40558" fill-rule="evenodd"/><path stroke="#1f497d" stroke-width="1.0" stroke-linejoin="round" stroke-linecap="butt" d="m592.68585 49.47267c-9.306824 -4.7865753 -39.885986 -26.060118 -55.84082 -28.71946c-15.954895 -2.65934 -22.072021 4.785982 -39.888367 12.763412c-17.816315 7.9774284 -48.928192 25.262257 -67.009674 35.101166c-18.081512 9.838905 -24.727173 12.764008 -41.47931 23.93229c-16.752136 11.168282 -46.801544 30.57975 -59.033447 43.077408c-12.231903 12.49765 -11.167114 13.294922 -14.357941 31.908524c-3.190857 18.613602 -2.9256897 55.04355 -4.7871704 79.7731c-1.8614807 24.729553 -5.051758 51.85211 -6.381714 68.60425c-1.3299866 16.752106 -2.9274902 18.878754 -1.598114 31.908508c1.3293762 13.029755 9.042236 29.783691 9.574341 46.27005c0.5321045 16.486359 -4.78598 40.948395 -6.3816833 52.648193c-1.5957336 11.699768 -17.286041 8.391205 -3.1926575 17.550568c14.093384 9.159363 73.12744 31.171326 87.75293 37.40558" fill-rule="evenodd"/><path fill="#1f497d" d="m358.15503 437.8782c-1.329956 -56.7576 -25.796143 -219.70393 11.165314 -284.7047c36.961456 -65.00077 171.51413 -105.03417 210.60342 -105.29993c39.089294 -0.2657547 12.763977 74.45502 23.932312 103.7054c11.168274 29.250366 34.036316 52.119034 43.077393 71.79686c9.041016 19.67781 8.775879 19.679 11.168884 46.270035c2.3929443 26.591034 8.773499 84.82425 3.1890259 113.276184c-5.5844116 28.451904 -22.336548 40.151123 -36.69568 57.435333c-14.359131 17.28424 -31.377014 37.49475 -49.459106 46.27005c-18.082092 8.775299 -43.34497 5.0523376 -59.033447 6.381714c-15.688507 1.3293762 -24.461426 -0.26693726 -35.097626 1.5945435c-10.636169 1.8614502 -14.360321 8.244354 -28.719452 9.574341c-14.359131 1.329956 -44.937683 0.1486206 -57.435333 -1.5945435c-12.497681 -1.7431641 -11.434631 1.9197388 -17.550598 -8.864471c-6.1159363 -10.78421 -17.815155 0.91677856 -19.145111 -55.84082z" fill-rule="evenodd"/><path stroke="#1f497d" stroke-width="1.0" stroke-linejoin="round" stroke-linecap="butt" d="m358.15503 437.8782c-1.329956 -56.7576 -25.796143 -219.70393 11.165314 -284.7047c36.961456 -65.00077 171.51413 -105.03417 210.60342 -105.29993c39.089294 -0.2657547 12.763977 74.45502 23.932312 103.7054c11.168274 29.250366 34.036316 52.119034 43.077393 71.79686c9.041016 19.67781 8.775879 19.679 11.168884 46.270035c2.3929443 26.591034 8.773499 84.82425 3.1890259 113.276184c-5.5844116 28.451904 -22.336548 40.151123 -36.69568 57.435333c-14.359131 17.28424 -31.377014 37.49475 -49.459106 46.27005c-18.082092 8.775299 -43.34497 5.0523376 -59.033447 6.381714c-15.688507 1.3293762 -24.461426 -0.26693726 -35.097626 1.5945435c-10.636169 1.8614502 -14.360321 8.244354 -28.719452 9.574341c-14.359131 1.329956 -44.937683 0.1486206 -57.435333 -1.5945435c-12.497681 -1.7431641 -11.434631 1.9197388 -17.550598 -8.864471c-6.1159363 -10.78421 -17.815155 0.91677856 -19.145111 -55.84082z" fill-rule="evenodd"/><path fill="#000000" fill-opacity="0.0" d="m432.19403 102.83044l231.32526 0l0 135.73877l-231.32526 0z" fill-rule="evenodd"/><path fill="#ffffff" d="m484.08466 195.83418q0 1.734375 -0.140625 2.71875q-0.140625 0.984375 -0.453125 1.40625q-0.296875 0.421875 -0.75 0.375q-0.4375 -0.046875 -1.140625 -0.375l-35.953125 -17.90625q-0.65625 -0.375 -0.96875 -1.5625q-0.296875 -1.203125 -0.296875 -3.59375q0 -1.21875 0.09375 -2.125q0.09375 -0.921875 0.234375 -1.5q0.140625 -0.59375 0.390625 -0.9375q0.265625 -0.359375 0.59375 -0.546875l35.90625 -17.8125q1.359375 -0.65625 1.921875 0.265625q0.5625 0.90625 0.5625 3.71875q0 1.921875 -0.078125 3.046875q-0.0625 1.125 -0.25 1.78125q-0.1875 0.65625 -0.515625 0.9375q-0.328125 0.28125 -0.890625 0.5625l-27.0 12.65625l26.484375 12.28125q0.703125 0.328125 1.140625 0.65625q0.453125 0.328125 0.6875 1.015625q0.234375 0.671875 0.328125 1.828125q0.09375 1.140625 0.09375 3.109375zm71.15625 -18.796875q0 1.21875 -0.09375 2.109375q-0.09375 0.890625 -0.265625 1.5q-0.15625 0.609375 -0.421875 0.96875q-0.25 0.34375 -0.578125 0.484375l-35.953125 17.8125q-0.65625 0.328125 -1.125 0.28125q-0.46875 -0.046875 -0.78125 -0.515625q-0.296875 -0.46875 -0.421875 -1.375q-0.109375 -0.921875 -0.109375 -2.328125q0 -1.921875 0.0625 -3.046875q0.078125 -1.125 0.265625 -1.78125q0.1875 -0.65625 0.515625 -0.953125q0.328125 -0.3125 0.890625 -0.546875l27.0 -12.65625l-26.484375 -12.28125q-0.75 -0.328125 -1.203125 -0.65625q-0.4375 -0.328125 -0.671875 -1.0q-0.234375 -0.6875 -0.3125 -1.828125q-0.0625 -1.15625 -0.0625 -3.125q0 -1.734375 0.109375 -2.71875q0.125 -0.984375 0.421875 -1.40625q0.3125 -0.421875 0.78125 -0.375q0.46875 0.046875 1.125 0.375l36.0 17.953125q0.609375 0.28125 0.953125 1.5q0.359375 1.21875 0.359375 3.609375z" fill-rule="nonzero"/><path fill="#000000" fill-opacity="0.0" d="m444.92178 204.01027l145.19894 0l0 252.08629l-145.19894 0z" fill-rule="evenodd"/><path fill="#ffffff" d="m483.54678 316.3265q0 1.21875 -0.125 1.984375q-0.109375 0.78125 -0.34375 1.25q-0.234375 0.46875 -0.5625 0.703125q-0.328125 0.234375 -0.703125 0.328125q-1.078125 0.28125 -2.0625 0.375q-0.984375 0.09375 -2.203125 0.09375q-3.703125 0 -6.140625 -1.171875q-2.4375 -1.171875 -3.890625 -3.40625q-1.453125 -2.21875 -2.046875 -5.59375q-0.578125 -3.375 -0.578125 -8.71875l0 -8.0625q0 -2.953125 -0.375 -4.6875q-0.375 -1.734375 -1.171875 -3.0625q-0.796875 -1.34375 -2.046875 -2.234375q-1.234375 -0.890625 -3.015625 -1.171875q-0.46875 -0.09375 -0.796875 -0.34375q-0.328125 -0.265625 -0.5625 -0.75q-0.234375 -0.5 -0.359375 -1.34375q-0.109375 -0.84375 -0.109375 -2.0625q0 -1.265625 0.09375 -2.125q0.09375 -0.875 0.296875 -1.390625q0.21875 -0.515625 0.515625 -0.71875q0.3125 -0.21875 0.78125 -0.3125q3.28125 -0.46875 5.015625 -3.1875q1.734375 -2.71875 1.734375 -8.015625l0 -6.046875q0 -5.34375 0.578125 -8.6875q0.59375 -3.359375 2.0625 -5.625q1.484375 -2.28125 3.921875 -3.421875q2.4375 -1.15625 6.09375 -1.15625q1.21875 0 2.203125 0.125q0.984375 0.109375 2.015625 0.34375q0.421875 0.046875 0.75 0.28125q0.328125 0.234375 0.5625 0.703125q0.234375 0.46875 0.34375 1.296875q0.125 0.8125 0.125 1.984375q0 1.21875 -0.140625 2.015625q-0.140625 0.796875 -0.375 1.3125q-0.234375 0.515625 -0.609375 0.734375q-0.375 0.203125 -0.75 0.203125l-1.734375 0.046875q-1.171875 0.046875 -1.953125 0.453125q-0.765625 0.390625 -1.265625 1.40625q-0.484375 1.0 -0.703125 2.71875q-0.203125 1.703125 -0.203125 5.3125l0 5.8125q0 3.609375 -0.515625 6.046875q-0.515625 2.4375 -1.671875 4.40625q-1.140625 1.96875 -2.96875 3.40625q-1.828125 1.421875 -4.5 2.03125q2.671875 0.609375 4.5 2.015625q1.828125 1.40625 2.96875 3.40625q1.15625 1.984375 1.671875 4.421875q0.515625 2.4375 0.515625 6.0l0 7.875q0 3.5625 0.203125 5.265625q0.21875 1.71875 0.65625 2.71875q0.453125 1.015625 1.125 1.4375q0.6875 0.421875 1.71875 0.46875l1.734375 0q0.65625 0.046875 1.125 0.25q0.46875 0.21875 0.71875 0.703125q0.265625 0.5 0.359375 1.296875q0.09375 0.796875 0.09375 2.0625z" fill-rule="nonzero"/><path fill="#ffffff" d="m533.453 278.264q0 1.3125 -0.125 2.15625q-0.109375 0.84375 -0.296875 1.359375q-0.1875 0.515625 -0.515625 0.75q-0.328125 0.234375 -0.75 0.28125q-1.78125 0.234375 -3.046875 1.390625q-1.265625 1.140625 -2.09375 2.859375q-0.8125 1.703125 -1.21875 3.8125q-0.390625 2.109375 -0.390625 5.25l0 6.046875q0 5.34375 -0.59375 8.6875q-0.578125 3.359375 -2.0625 5.609375q-1.46875 2.25 -3.90625 3.421875q-2.4375 1.171875 -6.09375 1.171875q-1.1718445 0 -2.1562195 -0.125q-0.984375 -0.109375 -2.15625 -0.34375q-0.375 -0.09375 -0.6875 -0.328125q-0.296875 -0.234375 -0.53125 -0.703125q-0.234375 -0.46875 -0.375 -1.25q-0.140625 -0.765625 -0.140625 -1.984375q0 -1.21875 0.140625 -2.015625q0.140625 -0.796875 0.390625 -1.3125q0.265625 -0.515625 0.609375 -0.734375q0.359375 -0.203125 0.734375 -0.25l1.78125 0q1.171875 -0.046875 1.9375 -0.453125q0.7812195 -0.390625 1.2655945 -1.40625q0.5 -1.0 0.703125 -2.734375q0.21875 -1.734375 0.21875 -5.296875l0 -5.859375q0 -3.5625 0.515625 -6.328125q0.515625 -2.765625 1.640625 -5.125q1.125 -2.375 2.96875 -4.125q1.859375 -1.765625 4.53125 -2.375q-2.671875 -0.609375 -4.53125 -1.6875q-1.84375 -1.078125 -2.96875 -2.671875q-1.125 -1.59375 -1.640625 -3.703125q-0.515625 -2.109375 -0.515625 -5.71875l0 -7.828125q0 -3.5625 -0.21875 -5.265625q-0.203125 -1.71875 -0.625 -2.75q-0.421875 -1.03125 -1.125 -1.421875q-0.7030945 -0.40625 -1.7343445 -0.453125l-1.6875 -0.046875q-0.703125 0 -1.171875 -0.203125q-0.46875 -0.21875 -0.75 -0.6875q-0.28125 -0.46875 -0.375 -1.28125q-0.09375 -0.828125 -0.09375 -2.09375q0 -1.171875 0.109375 -1.984375q0.125 -0.828125 0.375 -1.296875q0.265625 -0.46875 0.59375 -0.703125q0.328125 -0.234375 0.75 -0.28125q1.078125 -0.28125 2.0625 -0.375q0.984375 -0.09375 2.1562195 -0.09375q3.703125 0 6.140625 1.15625q2.4375 1.140625 3.890625 3.390625q1.453125 2.25 2.03125 5.609375q0.59375 3.34375 0.59375 8.734375l0 8.0625q0 2.90625 0.375 4.34375q0.375 1.421875 1.140625 2.359375q0.78125 0.9375 2.046875 1.5q1.265625 0.5625 3.046875 0.890625q0.421875 0.046875 0.765625 0.3125q0.359375 0.25 0.5625 0.765625q0.21875 0.515625 0.359375 1.34375q0.140625 0.8125 0.140625 2.03125z" fill-rule="nonzero"/><path fill="#ffffff" d="m473.70303 411.74524q0 1.875 -0.1875 3.40625q-0.1875 1.515625 -0.609375 2.875q-0.421875 1.359375 -1.078125 2.640625q-0.65625 1.296875 -1.640625 2.65625l-6.28125 9.0q-0.328125 0.46875 -0.734375 0.796875q-0.390625 0.328125 -0.953125 0.515625q-0.5625 0.1875 -1.359375 0.296875q-0.796875 0.125 -2.015625 0.125q-1.359375 0 -2.203125 -0.125q-0.84375 -0.109375 -1.21875 -0.34375q-0.375 -0.234375 -0.40625 -0.609375q-0.015625 -0.375 0.21875 -0.890625l5.71875 -12.9375l0 -7.40625q0 -1.59375 0.375 -2.578125q0.375 -0.984375 1.171875 -1.5q0.796875 -0.515625 2.015625 -0.671875q1.21875 -0.171875 2.953125 -0.171875q1.640625 0 2.8125 0.171875q1.171875 0.15625 1.9375 0.671875q0.78125 0.515625 1.125 1.5q0.359375 0.984375 0.359375 2.578125zm33.328125 23.765625q0 0.46875 -0.265625 0.84375q-0.25 0.375 -0.90625 0.625q-0.65625 0.265625 -1.71875 0.375q-1.046875 0.125 -2.6875 0.125q-1.59375 0 -2.65625 -0.125q-1.046875 -0.109375 -1.703125 -0.375q-0.65625 -0.25 -0.921875 -0.625q-0.25 -0.375 -0.25 -0.84375l0 -80.90625q0 -0.46875 0.25 -0.84375q0.265625 -0.375 0.921875 -0.625q0.65625 -0.265625 1.703125 -0.40625q1.0625 -0.140625 2.65625 -0.140625q1.640625 0 2.6875 0.140625q1.0625 0.140625 1.71875 0.40625q0.65625 0.25 0.90625 0.625q0.265625 0.375 0.265625 0.84375l0 80.90625z" fill-rule="nonzero"/></g></svg>